<svg width="481" height="321" viewBox="0 0 481 321" fill="none" xmlns="http://www.w3.org/2000/svg">
<path d="M104 112.003H32C29.8783 112.003 27.8434 111.161 26.3431 109.66C24.8429 108.16 24 106.125 24 104.003C24 101.882 24.8429 99.8469 26.3431 98.3466C27.8434 96.8463 29.8783 96.0034 32 96.0034H104C106.122 96.0034 108.157 96.8463 109.657 98.3466C111.157 99.8469 112 101.882 112 104.003C112 106.125 111.157 108.16 109.657 109.66C108.157 111.161 106.122 112.003 104 112.003ZM64 64.0034H168C170.122 64.0034 172.157 63.1606 173.657 61.6603C175.157 60.16 176 58.1252 176 56.0034C176 53.8817 175.157 51.8469 173.657 50.3466C172.157 48.8463 170.122 48.0034 168 48.0034H64C61.8783 48.0034 59.8434 48.8463 58.3431 50.3466C56.8429 51.8469 56 53.8817 56 56.0034C56 58.1252 56.8429 60.16 58.3431 61.6603C59.8434 63.1606 61.8783 64.0034 64 64.0034ZM8 160.003H16C18.1217 160.003 20.1566 159.161 21.6569 157.66C23.1571 156.16 24 154.125 24 152.003C24 149.882 23.1571 147.847 21.6569 146.347C20.1566 144.846 18.1217 144.003 16 144.003H8C5.87827 144.003 3.84344 144.846 2.34315 146.347C0.842854 147.847 0 149.882 0 152.003C0 154.125 0.842854 156.16 2.34315 157.66C3.84344 159.161 5.87827 160.003 8 160.003ZM184 104.003C184 102.953 183.794 101.912 183.392 100.942C182.99 99.9709 182.4 99.0889 181.657 98.346C180.915 97.603 180.033 97.0138 179.062 96.6118C178.091 96.2099 177.051 96.0032 176 96.0034H136C133.878 96.0034 131.843 96.8463 130.343 98.3466C128.843 99.8469 128 101.882 128 104.003C128 106.125 128.843 108.16 130.343 109.66C131.843 111.161 133.878 112.003 136 112.003H176C177.051 112.004 178.091 111.797 179.062 111.395C180.033 110.993 180.915 110.404 181.657 109.661C182.4 108.918 182.99 108.036 183.392 107.065C183.794 106.094 184 105.054 184 104.003ZM24 64.0034H32C34.1217 64.0034 36.1566 63.1606 37.6569 61.6603C39.1571 60.16 40 58.1252 40 56.0034C40 53.8817 39.1571 51.8469 37.6569 50.3466C36.1566 48.8463 34.1217 48.0034 32 48.0034H24C21.8783 48.0034 19.8434 48.8463 18.3431 50.3466C16.8429 51.8469 16 53.8817 16 56.0034C16 58.1252 16.8429 60.16 18.3431 61.6603C19.8434 63.1606 21.8783 64.0034 24 64.0034ZM48 160.003H152C154.122 160.003 156.157 159.161 157.657 157.66C159.157 156.16 160 154.125 160 152.003C160 149.882 159.157 147.847 157.657 146.347C156.157 144.846 154.122 144.003 152 144.003H48C45.8783 144.003 43.8434 144.846 42.3431 146.347C40.8429 147.847 40 149.882 40 152.003C40 154.125 40.8429 156.16 42.3431 157.66C43.8434 159.161 45.8783 160.003 48 160.003ZM96 200.003C96.0003 198.953 95.7935 197.912 95.3916 196.942C94.9897 195.971 94.4004 195.089 93.6575 194.346C92.9145 193.603 92.0325 193.014 91.0618 192.612C90.0911 192.21 89.0507 192.003 88 192.003H8C5.87827 192.003 3.84344 192.846 2.34315 194.347C0.842854 195.847 0 197.882 0 200.003C0 202.125 0.842854 204.16 2.34315 205.66C3.84344 207.161 5.87827 208.003 8 208.003H88C89.0507 208.004 90.0911 207.797 91.0618 207.395C92.0325 206.993 92.9145 206.404 93.6575 205.661C94.4004 204.918 94.9897 204.036 95.3916 203.065C95.7935 202.095 96.0003 201.054 96 200.003ZM479.711 177.242L468.328 249.253C467.254 255.525 464.029 261.227 459.207 265.378C454.385 269.53 448.268 271.873 441.906 272.003H432.278C428.31 285.502 420.188 297.406 409.066 306.023C397.945 314.641 384.39 319.532 370.328 320.003C363.925 320.205 357.547 319.109 351.579 316.78C345.611 314.452 340.176 310.939 335.601 306.455C331.026 301.97 327.407 296.606 324.96 290.685C322.514 284.764 321.291 278.409 321.366 272.003H196.05C192.082 285.503 183.959 297.408 172.836 306.025C161.713 314.642 148.156 319.534 134.094 320.003C127.691 320.205 121.313 319.108 115.345 316.779C109.377 314.45 103.942 310.938 99.3671 306.453C94.7923 301.969 91.1724 296.605 88.7254 290.684C86.2784 284.764 85.0548 278.409 85.1284 272.003H61.68C58.5324 272.043 55.4141 271.396 52.5417 270.108C49.6694 268.82 47.112 266.922 45.0472 264.546C43.0157 262.092 41.5433 259.225 40.7325 256.144C39.9216 253.063 39.7917 249.843 40.3519 246.706L42.8128 230.781C42.9734 229.742 43.3368 228.746 43.8825 227.848C44.4282 226.95 45.1453 226.169 45.993 225.548C46.8407 224.928 47.8024 224.48 48.823 224.231C49.8437 223.982 50.9034 223.936 51.9417 224.097C52.9799 224.258 53.9764 224.621 54.8742 225.167C55.772 225.712 56.5535 226.43 57.1741 227.277C57.7948 228.125 58.2424 229.087 58.4913 230.107C58.7403 231.128 58.7858 232.188 58.6253 233.226L56.1487 249.226C55.9564 250.083 55.9546 250.972 56.1436 251.83C56.3326 252.688 56.7077 253.494 57.2425 254.191C57.8018 254.803 58.49 255.283 59.2574 255.596C60.0248 255.91 60.8523 256.049 61.68 256.003H87.296C91.2656 242.505 99.3888 230.602 110.511 221.985C121.633 213.367 135.189 208.475 149.251 208.003C155.654 207.8 162.033 208.894 168.003 211.222C173.972 213.55 179.408 217.062 183.983 221.547C188.559 226.032 192.179 231.398 194.625 237.319C197.071 243.241 198.292 249.597 198.216 256.003H291.09L327.945 22.7534C328.118 21.8953 328.103 21.0098 327.901 20.158C327.698 19.3063 327.314 18.5086 326.773 17.8198C326.211 17.2077 325.52 16.7275 324.75 16.4135C323.98 16.0995 323.15 15.9595 322.32 16.0034H102.078C99.5422 16.1484 97.1267 17.1336 95.2127 18.8035C93.2987 20.4735 91.9952 22.7332 91.5078 25.2261C91.1836 27.3229 90.0396 29.2051 88.3276 30.4586C86.6156 31.712 84.4758 32.234 82.3789 31.9097C80.282 31.5854 78.3999 30.4415 77.1464 28.7295C75.893 27.0175 75.371 24.8777 75.6953 22.7808C76.7503 16.5051 79.9638 10.7948 84.7807 6.63616C89.5977 2.4775 95.7157 0.131545 102.078 0.00342801H322.32C325.46 -0.0527039 328.575 0.58112 331.443 1.86016C334.312 3.13919 336.865 5.03226 338.922 7.40575C340.964 9.85222 342.453 12.7115 343.286 15.7875C344.119 18.8634 344.278 22.0832 343.75 25.2261L340.151 48.0034H422.531C427.826 47.9002 432.968 49.7793 436.949 53.2721C440.929 56.7649 443.461 61.6191 444.047 66.8823L452.438 139.957L472.602 157.109C475.422 159.567 477.558 162.713 478.804 166.24C480.049 169.768 480.362 173.558 479.711 177.242ZM174.711 235.05C171.536 231.456 167.609 228.603 163.21 226.694C158.81 224.785 154.044 223.867 149.25 224.003C137.785 224.393 126.799 228.7 118.123 236.205C109.447 243.711 103.605 253.963 101.57 265.253C100.65 270.108 100.806 275.105 102.027 279.892C103.249 284.68 105.506 289.141 108.64 292.96C111.815 296.553 115.741 299.404 120.139 301.312C124.537 303.221 129.301 304.139 134.094 304.003C145.558 303.616 156.544 299.311 165.219 291.805C173.894 284.3 179.734 274.047 181.766 262.757L181.774 262.753C182.697 257.9 182.543 252.904 181.323 248.117C180.103 243.329 177.845 238.869 174.711 235.05ZM422.531 64.0034H385.582L375.281 129.25C375.102 130.107 375.11 130.993 375.307 131.846C375.504 132.699 375.885 133.499 376.422 134.191C376.981 134.801 377.667 135.281 378.433 135.594C379.199 135.907 380.025 136.047 380.852 136.003H435.883L428.156 68.7066C428.028 67.3394 427.365 66.0782 426.312 65.1974C425.258 64.3166 423.9 63.8875 422.531 64.0034ZM410.945 235.05C407.77 231.456 403.843 228.604 399.443 226.695C395.044 224.786 390.278 223.867 385.484 224.003C374.019 224.393 363.033 228.7 354.357 236.205C345.681 243.711 339.839 253.963 337.804 265.253C336.881 270.107 337.035 275.103 338.255 279.89C339.476 284.677 341.733 289.138 344.867 292.957C348.043 296.55 351.969 299.403 356.369 301.312C360.769 303.22 365.534 304.139 370.328 304.003C381.793 303.614 392.779 299.307 401.455 291.801C410.131 284.296 415.973 274.044 418.008 262.753C418.931 257.9 418.777 252.904 417.557 248.117C416.336 243.33 414.079 238.869 410.945 235.05ZM463.906 174.753C464.122 173.778 464.083 172.762 463.791 171.806C463.499 170.85 462.966 169.986 462.242 169.296L441.913 152.003H380.852C377.713 152.041 374.604 151.397 371.739 150.116C368.874 148.834 366.322 146.946 364.258 144.582C362.219 142.133 360.736 139.27 359.912 136.192C359.087 133.114 358.942 129.893 359.484 126.753L369.392 64.0034H337.622L307.282 256.003H323.535C327.502 242.505 335.624 230.601 346.746 221.984C357.868 213.366 371.423 208.474 385.484 208.003C391.888 207.802 398.265 208.898 404.233 211.227C410.202 213.555 415.637 217.068 420.211 221.552C424.786 226.037 428.406 231.401 430.852 237.322C433.299 243.243 434.521 249.598 434.447 256.003H441.906C444.449 255.856 446.872 254.868 448.793 253.196C450.715 251.523 452.027 249.26 452.523 246.761L463.906 174.753ZM160.797 247.425C162.836 249.874 164.319 252.737 165.143 255.815C165.967 258.893 166.113 262.114 165.57 265.254C164.496 271.525 161.27 277.226 156.449 281.378C151.627 285.529 145.51 287.872 139.148 288.003C136.011 288.04 132.903 287.396 130.038 286.116C127.174 284.836 124.621 282.951 122.555 280.589C120.517 278.14 119.034 275.278 118.207 272.2C117.38 269.123 117.23 265.902 117.766 262.761C118.844 256.488 122.073 250.786 126.897 246.634C131.721 242.481 137.839 240.137 144.203 240.003C147.341 239.966 150.45 240.61 153.315 241.891C156.18 243.173 158.733 245.061 160.797 247.425ZM149.773 262.753C149.953 261.897 149.944 261.012 149.747 260.159C149.55 259.306 149.17 258.507 148.633 257.816C148.074 257.205 147.387 256.726 146.621 256.413C145.855 256.099 145.03 255.96 144.203 256.003C141.658 256.153 139.233 257.142 137.309 258.815C135.386 260.489 134.071 262.753 133.57 265.253C133.392 266.11 133.403 266.996 133.601 267.849C133.799 268.701 134.181 269.5 134.719 270.191C135.278 270.801 135.965 271.279 136.731 271.593C137.497 271.906 138.322 272.046 139.148 272.003C141.692 271.856 144.114 270.868 146.035 269.196C147.957 267.523 149.269 265.26 149.766 262.761L149.773 262.753ZM397.031 247.425C399.07 249.874 400.553 252.737 401.377 255.815C402.201 258.893 402.347 262.114 401.805 265.254C400.728 271.524 397.502 277.224 392.681 281.375C387.859 285.526 381.744 287.87 375.383 288.003C372.243 288.041 369.133 287.396 366.267 286.114C363.4 284.832 360.846 282.943 358.781 280.578C356.742 278.13 355.26 275.268 354.436 272.19C353.611 269.113 353.465 265.893 354.008 262.754C355.085 256.483 358.311 250.783 363.132 246.632C367.953 242.481 374.069 240.137 380.43 240.003C383.569 239.966 386.679 240.61 389.546 241.891C392.412 243.173 394.966 245.061 397.031 247.425ZM386.008 262.753C386.188 261.898 386.179 261.013 385.982 260.161C385.785 259.309 385.404 258.51 384.867 257.82C384.308 257.208 383.62 256.728 382.852 256.414C382.085 256.1 381.258 255.959 380.43 256.003C377.885 256.154 375.463 257.144 373.54 258.817C371.618 260.491 370.304 262.754 369.805 265.253C369.625 266.109 369.634 266.994 369.831 267.846C370.028 268.698 370.408 269.497 370.945 270.187C371.505 270.799 372.193 271.279 372.96 271.593C373.728 271.907 374.555 272.047 375.383 272.003C377.927 271.852 380.35 270.863 382.272 269.189C384.194 267.516 385.508 265.253 386.008 262.753Z" fill="#fff"/>
</svg>
