<svg width="26" height="26" viewBox="0 0 26 26" fill="none" xmlns="http://www.w3.org/2000/svg">
<path d="M10.1187 1.039C10.086 1.0383 10.0534 1.04068 10.0212 1.04611C7.64082 1.07926 5.65678 1.83734 4.27071 3.16876C2.85323 4.53034 2.08 6.47084 2.08 8.71001C2.08 10.3619 2.69129 11.649 3.36578 12.8548C4.04027 14.0605 4.77565 15.2049 5.17766 16.6654V16.6624C5.64213 18.3908 5.97138 20.3691 6.48172 21.9649C6.73689 22.7629 7.03363 23.4703 7.4618 24.0195C7.88997 24.5688 8.50571 24.96 9.23305 24.96C9.94388 24.96 10.5978 24.6924 11.0256 24.176C11.4535 23.6595 11.6482 22.9477 11.6482 22.1041C11.6482 20.0314 12.0672 17.2855 12.4912 14.9145C12.5629 14.5739 12.7794 14.4727 13.0173 14.4727C13.2558 14.4727 13.4498 14.5585 13.5058 14.8962L13.5068 14.9002V14.9043C13.931 17.2279 14.3518 20.028 14.3518 22.1041C14.3518 22.9474 14.5466 23.6595 14.9744 24.176C15.4022 24.6925 16.0561 24.96 16.767 24.96C17.4962 24.96 18.1117 24.5642 18.5392 24.0114C18.9668 23.4586 19.2633 22.7473 19.5183 21.9467C20.0282 20.346 20.3587 18.3678 20.8223 16.6654C21.2244 15.2049 21.9597 14.0606 22.6342 12.8548C23.3084 11.6495 23.9195 10.3627 23.92 8.71204C23.9437 6.47335 23.1823 4.53155 21.7709 3.16978C20.3587 1.80716 18.3188 1.04001 15.8661 1.04001C14.8006 1.04001 13.8598 1.18354 13.0234 1.45642C12.1869 1.18354 11.2461 1.04001 10.1806 1.04001C10.1744 1.04001 10.1686 1.04102 10.1623 1.04103C10.1478 1.03974 10.1333 1.03906 10.1187 1.039ZM15.8661 2.08001C18.1038 2.08001 19.8551 2.76646 21.0488 3.91829C22.2426 5.07013 22.9021 6.70222 22.88 8.70392V8.70697V8.71001C22.88 10.1086 22.3783 11.1813 21.7263 12.347C21.0742 13.5126 20.2697 14.7515 19.8189 16.3892V16.3902C19.3348 18.1672 19.0012 20.1455 18.528 21.6308C18.2915 22.3734 18.016 22.9875 17.7166 23.3746C17.4172 23.7617 17.1511 23.92 16.767 23.92C16.2933 23.92 15.9995 23.7829 15.7757 23.5127C15.552 23.2426 15.3918 22.7859 15.3918 22.1041C15.3918 19.8926 14.9598 17.0722 14.5316 14.7256C14.3978 13.9193 13.6907 13.4327 13.0173 13.4327C12.3439 13.4327 11.6385 13.9042 11.4725 14.7052L11.4705 14.7124L11.4695 14.7195C11.0414 17.1121 10.6082 19.8902 10.6082 22.1041C10.6082 22.7862 10.448 23.2427 10.2243 23.5127C10.0006 23.7828 9.70678 23.92 9.23305 23.92C8.84707 23.92 8.58019 23.7629 8.28141 23.3797C7.98263 22.9965 7.70838 22.3874 7.47196 21.6481C6.99911 20.1694 6.6656 18.1914 6.18211 16.3922L6.1811 16.3912V16.3892C5.73033 14.7515 4.92578 13.5126 4.27375 12.347C3.62172 11.1814 3.12 10.1089 3.12 8.71001C3.12 6.70702 3.79159 5.07219 4.9918 3.91931C6.18137 2.77664 7.91338 2.09408 10.1227 2.08204C11.9668 2.22148 13.5763 3.05731 14.7144 4.37837C14.7585 4.43162 14.8127 4.47555 14.874 4.50758C14.9353 4.53961 15.0023 4.5591 15.0712 4.56492C15.1401 4.57074 15.2094 4.56276 15.2752 4.54146C15.341 4.52015 15.4018 4.48595 15.4542 4.44085C15.5066 4.39574 15.5495 4.34065 15.5803 4.27878C15.6112 4.21691 15.6294 4.14951 15.6339 4.08053C15.6384 4.01154 15.6291 3.94235 15.6065 3.877C15.584 3.81165 15.5486 3.75146 15.5025 3.69993C15.0306 3.15209 14.4833 2.67922 13.8816 2.28619C14.4668 2.15259 15.1252 2.08001 15.8661 2.08001Z" fill="white"/>
</svg>
