<svg width="26" height="26" viewBox="0 0 26 26" fill="none" xmlns="http://www.w3.org/2000/svg">
<path d="M13.0005 4.875C8.70953 4.875 4.69569 7.66268 1.70065 12.7239C1.65105 12.8074 1.62488 12.9028 1.62488 13C1.62488 13.0972 1.65105 13.1926 1.70065 13.2761C4.69569 18.3373 8.709 21.125 13.0005 21.125C17.2921 21.125 21.3049 18.3373 24.2999 13.2761C24.3492 13.1925 24.3753 13.0971 24.3753 13C24.3753 12.9029 24.3492 12.8075 24.2999 12.7239C21.3048 7.66268 17.2921 4.875 13.0005 4.875ZM13.0005 20.0417C9.18349 20.0417 5.57008 17.5439 2.79879 13C5.57007 8.45613 9.18348 5.95833 13.0005 5.95833C16.8171 5.95833 20.4299 8.45613 23.2018 13C20.4299 17.5439 16.8171 20.0417 13.0005 20.0417ZM13 9.20833C12.2501 9.20833 11.517 9.43071 10.8935 9.84734C10.2699 10.264 9.78395 10.8562 9.49697 11.549C9.20999 12.2418 9.1349 13.0042 9.2812 13.7397C9.42751 14.4752 9.78863 15.1508 10.3189 15.6811C10.8492 16.2114 11.5248 16.5725 12.2603 16.7188C12.9958 16.8651 13.7582 16.79 14.451 16.503C15.1439 16.2161 15.736 15.7301 16.1527 15.1065C16.5693 14.483 16.7917 13.7499 16.7917 13C16.7905 11.9948 16.3906 11.031 15.6798 10.3202C14.969 9.60942 14.0053 9.20955 13 9.20833ZM13 15.7083C12.4644 15.7083 11.9407 15.5495 11.4953 15.2519C11.05 14.9543 10.7028 14.5313 10.4978 14.0364C10.2929 13.5416 10.2392 12.997 10.3437 12.4716C10.4482 11.9463 10.7062 11.4637 11.0849 11.0849C11.4637 10.7062 11.9463 10.4482 12.4716 10.3437C12.997 10.2392 13.5416 10.2928 14.0364 10.4978C14.5313 10.7028 14.9543 11.0499 15.2519 11.4953C15.5495 11.9407 15.7083 12.4643 15.7083 13C15.7076 13.7181 15.422 14.4065 14.9143 14.9142C14.4065 15.422 13.7181 15.7076 13 15.7083Z" fill="white"/>
</svg>
