<svg width="427" height="459" viewBox="0 0 427 459" fill="none" xmlns="http://www.w3.org/2000/svg">
<path d="M213.33 0.00825709C201.587 -0.207103 189.528 3.79467 180.184 12.3624L169.58 22.0916L155.518 19.1541C131.641 14.1938 107.548 28.3164 100.226 51.5916L95.9135 65.2999L82.2468 69.7999C59.0855 77.4406 45.2992 101.683 50.5802 125.487L53.6843 139.529L44.1218 150.237C27.8809 168.425 28.061 196.312 44.5177 214.3H44.5385L54.2468 224.904L51.3093 238.987C48.037 254.739 53.178 270.471 63.6635 281.529L4.68433 340.508C2.73444 342.459 1.32187 344.881 0.583707 347.538C-0.154459 350.196 -0.193161 352.999 0.471352 355.676C1.13586 358.353 2.48103 360.813 4.37633 362.816C6.27162 364.82 8.65269 366.3 11.2885 367.112L72.5385 385.946L91.3718 447.196C92.1842 449.832 93.6641 452.213 95.668 454.108C97.6718 456.003 100.131 457.348 102.808 458.013C105.485 458.677 108.289 458.639 110.946 457.901C113.604 457.162 116.025 455.75 117.976 453.8L209.726 362.05C210.783 362.15 211.837 362.375 212.893 362.404C213.184 362.412 213.476 362.412 213.768 362.404C214.824 362.375 215.877 362.15 216.934 362.05L308.684 453.8C310.635 455.75 313.057 457.162 315.714 457.901C318.372 458.639 321.175 458.677 323.852 458.013C326.529 457.348 328.989 456.003 330.992 454.108C332.996 452.213 334.476 449.832 335.289 447.196L354.122 385.946L415.372 367.112C418.008 366.3 420.389 364.82 422.284 362.816C424.179 360.813 425.524 358.353 426.189 355.676C426.853 352.999 426.815 350.196 426.077 347.538C425.338 344.881 423.926 342.459 421.976 340.508L362.976 281.508C373.461 270.452 378.623 254.738 375.351 238.987L372.414 224.904L382.122 214.3H382.143C398.599 196.312 398.779 168.425 382.539 150.237L372.955 139.508L376.08 125.487C381.361 101.683 367.575 77.4198 344.414 69.7791L330.747 65.2791L326.434 51.5708C319.112 28.2956 295.019 14.1938 271.143 19.1541L257.08 22.0708L246.476 12.3624L246.455 12.3416C237.113 3.79075 225.073 -0.207194 213.33 0.00825709ZM212.872 31.9041C213.177 31.9128 213.483 31.9128 213.788 31.9041C217.878 31.7894 221.73 33.0891 224.851 35.9458L241.497 51.2166C243.368 52.927 245.619 54.1684 248.064 54.8385C250.508 55.5086 253.078 55.5882 255.559 55.0708L277.664 50.4874C285.723 48.8131 293.423 53.3248 295.893 61.1749H295.914L302.684 82.7166C303.446 85.1382 304.772 87.344 306.555 89.1516C308.337 90.9592 310.524 92.3169 312.934 93.1124L334.393 100.175C342.207 102.753 346.611 110.525 344.83 118.55L339.955 140.592C339.405 143.07 339.453 145.643 340.094 148.099C340.735 150.555 341.952 152.823 343.643 154.717L358.664 171.55C364.14 177.683 364.077 186.619 358.518 192.696L343.289 209.342C341.574 211.211 340.329 213.461 339.655 215.906C338.982 218.351 338.899 220.921 339.414 223.404L344.018 245.508C345.566 253.013 341.688 260.149 334.809 263.092C333.185 263.397 331.618 263.952 330.164 264.737C330.143 264.744 330.122 264.751 330.101 264.758L311.768 270.529C309.35 271.293 307.148 272.621 305.345 274.403C303.541 276.185 302.186 278.371 301.393 280.779L294.309 302.217C291.731 310.031 283.96 314.455 275.934 312.675L253.893 307.779C251.418 307.233 248.848 307.282 246.396 307.923C243.944 308.564 241.679 309.779 239.788 311.467L222.934 326.487L222.913 326.508C221.606 327.679 220.145 328.511 218.601 329.112C218.223 329.196 217.847 329.293 217.476 329.404H217.455C216.121 329.807 214.767 330.158 213.33 330.237C211.827 330.154 210.393 329.807 208.997 329.362C208.914 329.341 208.83 329.32 208.747 329.3C208.56 329.255 208.373 329.213 208.184 329.175C206.584 328.568 205.082 327.698 203.726 326.487L186.872 311.467C184.981 309.779 182.716 308.564 180.264 307.923C177.812 307.282 175.243 307.233 172.768 307.779L150.726 312.675C142.701 314.455 134.929 310.031 132.351 302.217L125.268 280.779C124.474 278.371 123.12 276.185 121.316 274.403C119.512 272.621 117.31 271.293 114.893 270.529L96.1843 264.633H96.1635C94.9166 264.005 93.5929 263.543 92.226 263.258C85.0977 260.422 81.0529 253.14 82.6427 245.487L87.2468 223.404C87.7616 220.921 87.6786 218.351 87.0049 215.906C86.3312 213.461 85.0859 211.211 83.3718 209.342L68.1427 192.696L68.1218 192.675C62.5827 186.599 62.527 177.675 67.9968 171.55L83.0177 154.717C84.7054 152.826 85.9198 150.561 86.5609 148.109C87.202 145.657 87.2514 143.087 86.7052 140.612L81.8302 118.571C80.0498 110.546 84.453 102.774 92.2677 100.196L113.726 93.1124C116.134 92.3189 118.32 90.9644 120.102 89.1606C121.884 87.3567 123.212 85.1552 123.976 82.7374L130.747 61.1958H130.768C133.237 53.3456 140.937 48.8131 148.997 50.4874L171.101 55.0916C173.584 55.6063 176.154 55.5234 178.599 54.8496C181.044 54.1759 183.294 52.9307 185.163 51.2166L201.809 35.9666V35.9458C204.929 33.0849 208.782 31.7894 212.872 31.9041ZM93.2052 297.237L97.4552 298.571L101.955 312.237C109.596 335.399 133.839 349.185 157.643 343.904L171.684 340.8L179.101 347.425L114.143 412.383L100.622 368.446C99.8541 365.953 98.4884 363.685 96.6438 361.84C94.7992 359.996 92.5316 358.63 90.0385 357.862L46.101 344.342L93.2052 297.237ZM333.455 297.237L380.559 344.342L336.622 357.862C334.129 358.63 331.861 359.996 330.017 361.84C328.172 363.685 326.806 365.953 326.039 368.446L312.518 412.383L247.539 347.404L254.976 340.8L269.018 343.904C292.822 349.185 317.064 335.399 324.705 312.237L329.205 298.571L333.455 297.237Z" fill="#fff"/>
</svg>
