<svg width="459" height="459" viewBox="0 0 459 459" fill="none" xmlns="http://www.w3.org/2000/svg">
<path d="M458.507 229.412C458.507 290.639 434.613 348.239 391.307 391.545C348 434.852 287.84 458.532 229.173 458.532C170.507 458.532 111.627 436.132 67.04 391.545C-22.3467 302.159 -22.3467 156.665 67.04 67.2786C146.613 -12.5081 270.773 -20.6148 359.947 41.6786L357.387 17.7852C356.533 9.03855 362.72 1.14522 371.68 0.0785527C380.427 -0.774781 388.32 5.41189 389.387 14.3719L396.213 76.8786C397.067 85.6252 390.88 93.5186 381.92 94.5852L318.347 101.412H316.64C308.533 101.412 301.707 95.4386 300.64 87.1186C299.787 78.3719 305.973 70.4786 314.933 69.4119L340.533 66.6386C263.733 13.9452 157.92 21.4119 89.6533 89.6786C12.64 166.692 12.64 291.919 89.6533 368.719C166.667 445.732 291.893 445.732 368.693 368.719C387.082 350.445 401.661 328.703 411.585 304.754C421.509 280.804 426.581 255.123 426.507 229.199C426.507 220.452 433.76 213.199 442.507 213.199C451.253 213.199 458.507 220.452 458.507 229.199V229.412ZM318.987 156.025C330.507 162.639 337.76 175.012 337.76 188.452V270.585C337.76 283.812 330.72 296.185 318.987 303.012L247.947 343.972C242.187 347.385 235.787 348.879 229.173 348.879C222.56 348.879 216.16 347.172 210.4 343.972L139.36 303.012C127.84 296.399 120.587 284.025 120.587 270.585V188.452C120.587 175.225 127.627 162.852 139.36 156.025L210.4 115.065C221.92 108.452 236.213 108.452 247.733 115.065L318.773 156.025H318.987ZM168.8 176.079L226.613 209.359C228.32 210.212 230.24 210.212 231.947 209.359L289.76 176.079L231.947 142.799C231.947 142.799 230.24 142.159 229.387 142.159C228.533 142.159 227.467 142.372 226.827 142.799L169.013 176.079H168.8ZM213.6 308.559V238.372C213.6 238.372 211.467 237.732 210.4 237.092L152.587 203.812V270.372C152.587 272.292 153.653 273.999 155.147 275.065L213.387 308.559H213.6ZM305.547 270.372V203.812L247.733 237.092C247.733 237.092 246.24 237.732 245.6 237.945V308.132L302.773 275.065C304.48 274.212 305.333 272.292 305.333 270.372H305.547Z" fill="#fff"/>
</svg>
