<svg width="26" height="26" viewBox="0 0 26 26" fill="none" xmlns="http://www.w3.org/2000/svg">
<g clip-path="url(#clip0_11_156)">
<path d="M21.71 0.52002C20.6274 0.52002 19.5467 0.944551 18.72 1.77127L7.89751 12.5775C7.18251 13.2925 7.08501 14.4117 7.62126 15.2263C7.17642 15.7503 6.69501 16.057 6.09376 16.4125C5.38689 16.8289 4.51954 17.3225 3.54251 18.2975V18.3138C0.723137 21.0864 0.0162622 24.5375 0.0162622 24.5375L-0.0812378 24.96L0.325012 25.1225C0.325012 25.1225 1.37923 25.5714 2.89251 25.48C4.40376 25.3886 6.4147 24.761 8.36876 22.7825V22.7663C9.25642 21.8766 9.58548 21.2672 9.75001 20.8163C9.91251 20.3714 9.91048 20.2089 10.2863 19.825C10.2944 19.8169 10.2944 19.8169 10.3025 19.8088C10.7149 19.4411 11.117 19.2928 11.6188 19.0613C12.3886 19.3944 13.3169 19.2481 13.9425 18.6225L24.7163 7.84877L24.7488 7.80002C26.4022 6.14658 26.4022 3.47346 24.7488 1.82002L24.7 1.77127C23.8733 0.944551 22.7927 0.52002 21.71 0.52002ZM21.71 1.56002C22.5245 1.56002 23.3391 1.87283 23.9688 2.50252L24.0175 2.55127C25.2769 3.81064 25.2769 5.80939 24.0175 7.06877L13.2113 17.8913C12.8842 18.2183 12.4292 18.2935 12.0413 18.1188C12.0352 18.1127 12.0311 18.1086 12.025 18.1025C12.0189 18.1005 12.0149 18.0903 12.0088 18.0863C11.958 18.0375 11.897 17.9989 11.83 17.9725C11.7975 17.9481 11.763 17.936 11.7325 17.9075L11.7 17.8913L8.69376 14.9013C8.68361 14.8891 8.67345 14.8789 8.66126 14.8688L8.62876 14.82C8.19814 14.3894 8.19814 13.7394 8.62876 13.3088L19.4513 2.50252C20.0809 1.87283 20.8955 1.56002 21.71 1.56002ZM15.0313 8.82377C15.0089 8.82783 14.9866 8.83393 14.9663 8.84002C14.7713 8.87455 14.6149 9.01674 14.56 9.20564C14.5052 9.39658 14.562 9.59971 14.7063 9.73377L16.7863 11.8138C16.9935 12.021 17.3266 12.021 17.5338 11.8138C17.7409 11.6066 17.7409 11.2735 17.5338 11.0663L15.4538 8.98627C15.3461 8.87049 15.1897 8.81158 15.0313 8.82377ZM13.4713 10.3838C13.4489 10.3878 13.4266 10.3939 13.4063 10.4C13.2113 10.4346 13.0549 10.5767 13 10.7656C12.9452 10.9566 13.002 11.1597 13.1463 11.2938L15.2263 13.3738C15.4334 13.581 15.7666 13.581 15.9738 13.3738C16.181 13.1666 16.181 12.8335 15.9738 12.6263L13.8938 10.5463C13.7861 10.4305 13.6297 10.3716 13.4713 10.3838ZM11.9113 11.9438C11.8889 11.9478 11.8666 11.9539 11.8463 11.96C11.6513 11.9946 11.4949 12.1367 11.44 12.3256C11.3852 12.5166 11.442 12.7197 11.5863 12.8538L13.6663 14.9338C13.8734 15.141 14.2066 15.141 14.4138 14.9338C14.6209 14.7266 14.6209 14.3935 14.4138 14.1863L12.3338 12.1063C12.2261 11.9905 12.0697 11.9316 11.9113 11.9438ZM8.32001 15.99L10.6763 18.33C10.3269 18.5027 9.96736 18.716 9.58751 19.0613L9.57126 19.0775C9.03501 19.6138 8.90907 20.0931 8.77501 20.4588C8.64095 20.8244 8.45814 21.2306 7.63751 22.0513C5.85204 23.8631 4.12142 24.3628 2.82751 24.44C2.06782 24.4867 1.54782 24.3831 1.18626 24.2938C1.34064 23.6702 1.98861 21.2713 4.25751 19.045H4.27376V19.0288C5.16345 18.1391 5.89267 17.7328 6.61376 17.3063C7.19673 16.961 7.78376 16.5872 8.32001 15.99Z" fill="white"/>
</g>
<defs>
<clipPath id="clip0_11_156">
<rect width="26" height="26" fill="white"/>
</clipPath>
</defs>
</svg>
