<svg width="26" height="26" viewBox="0 0 26 26" fill="none" xmlns="http://www.w3.org/2000/svg">
<path d="M22.5713 14.7631V8.03969C22.5713 6.98218 22.1512 5.96798 21.4034 5.22021C20.6556 4.47244 19.6414 4.05234 18.5839 4.05234C17.5264 4.05234 16.5122 4.47244 15.7644 5.22021C15.0167 5.96798 14.5966 6.98218 14.5966 8.03969V11.2247V19.9834C14.5671 20.8058 14.2198 21.5847 13.6276 22.156C13.0354 22.7274 12.2446 23.0467 11.4217 23.0467C10.5988 23.0467 9.80804 22.7274 9.21586 22.156C8.62367 21.5847 8.2763 20.8058 8.24688 19.9834V14.4341C9.76539 14.2984 11.1772 13.5962 12.2017 12.4671C13.2261 11.3381 13.7881 9.86482 13.7759 8.34031V4.23719C13.7759 3.79759 13.6013 3.376 13.2905 3.06516C12.9796 2.75432 12.558 2.57969 12.1184 2.57969H11.0094V2.4375C11.0094 2.32976 10.9666 2.22642 10.8904 2.15024C10.8142 2.07405 10.7109 2.03125 10.6031 2.03125C10.4954 2.03125 10.3921 2.07405 10.3159 2.15024C10.2397 2.22642 10.1969 2.32976 10.1969 2.4375V3.5425C10.1969 3.65024 10.2397 3.75358 10.3159 3.82976C10.3921 3.90595 10.4954 3.94875 10.6031 3.94875C10.7109 3.94875 10.8142 3.90595 10.8904 3.82976C10.9666 3.75358 11.0094 3.65024 11.0094 3.5425V3.39625H12.1184C12.3425 3.39625 12.5575 3.48528 12.7159 3.64374C12.8744 3.80221 12.9634 4.01714 12.9634 4.24125V8.33625C12.9805 9.70054 12.4652 11.0178 11.5269 12.0084C10.5887 12.999 9.30134 13.5849 7.93813 13.6419C7.25806 13.6548 6.58222 13.5323 5.94997 13.2815C5.31772 13.0306 4.7417 12.6565 4.25547 12.1809C3.76924 11.7052 3.38252 11.1376 3.11783 10.511C2.85315 9.88442 2.71579 9.21144 2.71375 8.53125V4.23719C2.71483 4.01378 2.80433 3.7999 2.96268 3.64231C3.12103 3.48472 3.33535 3.39625 3.55875 3.39625H4.66782V3.5425C4.66782 3.65024 4.71062 3.75358 4.7868 3.82976C4.86299 3.90595 4.96632 3.94875 5.07407 3.94875C5.18181 3.94875 5.28514 3.90595 5.36133 3.82976C5.43751 3.75358 5.48031 3.65024 5.48031 3.5425V2.4375C5.48031 2.32976 5.43751 2.22642 5.36133 2.15024C5.28514 2.07405 5.18181 2.03125 5.07407 2.03125C4.96632 2.03125 4.86299 2.07405 4.7868 2.15024C4.71062 2.22642 4.66782 2.32976 4.66782 2.4375V2.58375H3.55875C3.11916 2.58375 2.69756 2.75838 2.38672 3.06922C2.07588 3.38006 1.90125 3.80165 1.90125 4.24125V8.53125C1.90411 10.0331 2.47696 11.4778 3.50405 12.5735C4.53114 13.6693 5.93587 14.3342 7.43438 14.4341V19.9834C7.46743 21.0189 7.90201 22.0009 8.64618 22.7217C9.39034 23.4425 10.3857 23.8455 11.4217 23.8455C12.4577 23.8455 13.4531 23.4425 14.1973 22.7217C14.9414 22.0009 15.376 21.0189 15.4091 19.9834V16.7984V8.03969C15.4091 7.62276 15.4912 7.20992 15.6507 6.82473C15.8103 6.43954 16.0441 6.08955 16.339 5.79473C16.6338 5.49992 16.9838 5.26607 17.3689 5.10651C17.7541 4.94696 18.167 4.86484 18.5839 4.86484C19.0008 4.86484 19.4137 4.94696 19.7989 5.10651C20.1841 5.26607 20.534 5.49992 20.8289 5.79473C21.1237 6.08955 21.3575 6.43954 21.5171 6.82473C21.6766 7.20992 21.7588 7.62276 21.7588 8.03969V14.7631C21.2919 14.8634 20.8787 15.1329 20.5987 15.5197C20.3187 15.9065 20.1916 16.3832 20.2421 16.858C20.2925 17.3328 20.5168 17.7722 20.8719 18.0915C21.2269 18.4108 21.6875 18.5875 22.165 18.5875C22.6425 18.5875 23.1031 18.4108 23.4581 18.0915C23.8132 17.7722 24.0375 17.3328 24.0879 16.858C24.1384 16.3832 24.0114 15.9065 23.7313 15.5197C23.4513 15.1329 23.0381 14.8634 22.5713 14.7631Z" fill="white"/>
</svg>
