<svg width="219" height="74" viewBox="0 0 219 74" fill="none" xmlns="http://www.w3.org/2000/svg">
<path d="M213.291 34.5693C213.291 39.1059 210.409 43.4707 205.082 47.486C199.753 51.5028 192.011 55.1413 182.395 58.2067C163.168 64.3366 136.563 68.1387 107.146 68.1387C77.7286 68.1387 51.1241 64.3366 31.8959 58.2067C22.2804 55.1413 14.5381 51.5028 9.20884 47.486C3.88148 43.4707 1 39.1059 1 34.5693C1 30.0327 3.88148 25.668 9.20884 21.6527C14.5381 17.6359 22.2804 13.9974 31.8959 10.932C51.1241 4.80212 77.7286 1 107.146 1C136.563 1 163.168 4.80212 182.395 10.932C192.011 13.9974 199.753 17.6359 205.082 21.6527C210.409 25.668 213.291 30.0327 213.291 34.5693Z" stroke="#2068EC" stroke-width="1.2"/>
<path d="M217.992 30.9308C218.171 35.5152 215.442 40.1218 210.259 44.5395C205.074 48.9584 197.46 53.1623 187.957 56.9194C168.951 64.4327 142.479 70.1222 113.049 72.189C83.6192 74.2561 56.8497 72.3054 37.3647 67.4952C27.6211 65.0899 19.723 61.9753 14.2235 58.3067C8.72566 54.6391 5.65448 50.4398 5.47606 45.8554C5.29765 41.271 8.02611 36.6643 13.2093 32.2467C18.394 27.8278 26.0073 23.6239 35.5111 19.8668C54.5165 12.3535 80.9887 6.66402 110.419 4.59717C139.849 2.53037 166.619 4.48079 186.104 9.29092C195.847 11.6963 203.745 14.8109 209.245 18.4795C214.742 22.1471 217.814 26.3464 217.992 30.9308Z" stroke="#2068EC"/>
</svg>
