<svg width="400" height="240" viewBox="0 0 400 240" fill="none" xmlns="http://www.w3.org/2000/svg">
<mask id="mask0_12_2" style="mask-type:luminance" maskUnits="userSpaceOnUse" x="172" y="69" width="54" height="71">
<path d="M172.422 69.1492H225.409V139.747H172.422V69.1492Z" fill="white"/>
</mask>
<g mask="url(#mask0_12_2)">
<path d="M214.38 139.677H183.895C178.017 139.677 173.203 134.863 173.203 128.979V114.188H180.335V128.979C180.335 130.942 181.938 132.545 183.895 132.545H214.38C216.338 132.545 217.946 130.942 217.946 128.979V69.8708H225.072V128.979C225.072 134.863 220.294 139.677 214.38 139.677Z" fill="#A6A6A6"/>
</g>
<mask id="mask1_12_2" style="mask-type:luminance" maskUnits="userSpaceOnUse" x="172" y="0" width="54" height="71">
<path d="M172.422 0H225.409V70.6632H172.422V0Z" fill="white"/>
</mask>
<g mask="url(#mask1_12_2)">
<path d="M180.335 69.8708H173.203V10.763C173.203 4.88476 178.017 0.0709839 183.895 0.0709839H214.38C220.259 0.0709839 225.072 4.88476 225.072 10.763V25.5592H217.946V10.763C217.946 8.80557 216.338 7.19704 214.38 7.19704H183.895C181.938 7.19704 180.335 8.80557 180.335 10.763V69.8708Z" fill="#03989E"/>
</g>
<mask id="mask2_12_2" style="mask-type:luminance" maskUnits="userSpaceOnUse" x="129" y="43" width="71" height="54">
<path d="M129.282 43.4128H199.673V96.3998H129.282V43.4128Z" fill="white"/>
</mask>
<g mask="url(#mask2_12_2)">
<path d="M199.158 95.8262H140.05C134.166 95.8262 129.353 91.0124 129.353 85.1342V54.6489C129.353 48.7706 134.166 43.9568 140.05 43.9568H154.841V51.0829H140.05C138.087 51.0829 136.485 52.6914 136.485 54.6489V85.1342C136.485 87.0916 138.087 88.6943 140.05 88.6943H199.158V95.8262Z" fill="#03989E"/>
</g>
<mask id="mask3_12_2" style="mask-type:luminance" maskUnits="userSpaceOnUse" x="198" y="43" width="72" height="54">
<path d="M198.159 43.4128H269.029V96.3998H198.159V43.4128Z" fill="white"/>
</mask>
<g mask="url(#mask3_12_2)">
<path d="M258.266 95.8262H243.47V88.6943H258.266C260.223 88.6943 261.832 87.0916 261.832 85.1342V54.6489C261.832 52.6914 260.223 51.0829 258.266 51.0829H199.158V43.9568H258.266C264.144 43.9568 268.958 48.7706 268.958 54.6489V85.1342C268.958 91.0124 264.144 95.8262 258.266 95.8262Z" fill="#A6A6A6"/>
</g>
<mask id="mask4_12_2" style="mask-type:luminance" maskUnits="userSpaceOnUse" x="172" y="69" width="54" height="71">
<path d="M172.422 69.1492H225.409V139.747H172.422V69.1492Z" fill="white"/>
</mask>
<g mask="url(#mask4_12_2)">
<path d="M214.38 139.677H183.895C178.017 139.677 173.203 134.863 173.203 128.979V114.188H180.335V128.979C180.335 130.942 181.938 132.545 183.895 132.545H214.38C216.338 132.545 217.946 130.942 217.946 128.979V69.8708H225.072V128.979C225.072 134.863 220.294 139.677 214.38 139.677Z" fill="#A6A6A6"/>
</g>
<mask id="mask5_12_2" style="mask-type:luminance" maskUnits="userSpaceOnUse" x="172" y="0" width="54" height="71">
<path d="M172.422 0H225.409V70.6632H172.422V0Z" fill="white"/>
</mask>
<g mask="url(#mask5_12_2)">
<path d="M180.335 69.8708H173.203V10.763C173.203 4.88476 178.017 0.0709839 183.895 0.0709839H214.38C220.259 0.0709839 225.072 4.88476 225.072 10.763V25.5592H217.946V10.763C217.946 8.80557 216.338 7.19704 214.38 7.19704H183.895C181.938 7.19704 180.335 8.80557 180.335 10.763V69.8708Z" fill="#03989E"/>
</g>
<mask id="mask6_12_2" style="mask-type:luminance" maskUnits="userSpaceOnUse" x="129" y="43" width="71" height="54">
<path d="M129.282 43.4128H199.673V96.3998H129.282V43.4128Z" fill="white"/>
</mask>
<g mask="url(#mask6_12_2)">
<path d="M199.158 95.8262H140.05C134.166 95.8262 129.353 91.0124 129.353 85.1342V54.6489C129.353 48.7706 134.166 43.9568 140.05 43.9568H154.841V51.0829H140.05C138.087 51.0829 136.485 52.6914 136.485 54.6489V85.1342C136.485 87.0916 138.087 88.6943 140.05 88.6943H199.158V95.8262Z" fill="#03989E"/>
</g>
<mask id="mask7_12_2" style="mask-type:luminance" maskUnits="userSpaceOnUse" x="198" y="43" width="72" height="54">
<path d="M198.159 43.4128H269.029V96.3998H198.159V43.4128Z" fill="white"/>
</mask>
<g mask="url(#mask7_12_2)">
<path d="M258.266 95.8262H243.47V88.6943H258.266C260.223 88.6943 261.832 87.0916 261.832 85.1342V54.6489C261.832 52.6914 260.223 51.0829 258.266 51.0829H199.158V43.9568H258.266C264.144 43.9568 268.958 48.7706 268.958 54.6489V85.1342C268.958 91.0124 264.144 95.8262 258.266 95.8262Z" fill="#A6A6A6"/>
</g>
<path d="M40.1897 200.451H34.276L34.2287 172.042L22.212 196.477H18.0487L6.03201 172.042V200.451H0V162.438H7.61689L20.154 187.678L32.6438 162.438H40.1897V200.451Z" fill="#03989E"/>
<path d="M85.5285 168.186H64.7831V178.452H83.3523V184.2H64.7831V194.703H86.1909V200.451H58.3727V162.438H85.5285V168.186Z" fill="#03989E"/>
<path d="M102.139 162.438H117.728C123.417 162.438 128.118 164.23 131.826 167.807C135.528 171.391 137.385 175.933 137.385 181.433C137.385 186.938 135.517 191.486 131.779 195.082C128.053 198.665 123.316 200.451 117.562 200.451H102.139V162.438ZM108.55 168.186V194.703H117.894C121.631 194.703 124.736 193.467 127.214 190.989C129.686 188.5 130.927 185.336 130.927 181.504C130.927 177.66 129.65 174.478 127.095 171.971C124.541 169.451 121.383 168.186 117.633 168.186H108.55Z" fill="#03989E"/>
<path d="M158.778 200.451H152.367V162.438H158.778V200.451Z" fill="#03989E"/>
<path d="M193.755 162.272C196.434 162.272 199.054 162.793 201.609 163.833C204.164 164.862 206.363 166.293 208.208 168.139L204.447 172.799C203.075 171.32 201.443 170.143 199.551 169.274C197.67 168.411 195.778 167.973 193.874 167.973C190.071 167.973 186.854 169.268 184.222 171.852C181.603 174.443 180.296 177.6 180.296 181.338C180.296 185.111 181.603 188.287 184.222 190.871C186.854 193.461 190.071 194.75 193.874 194.75C197.812 194.75 201.337 193.248 204.447 190.232L208.256 194.466C206.298 196.394 204.01 197.914 201.396 199.032C198.794 200.155 196.174 200.711 193.542 200.711C187.96 200.711 183.264 198.86 179.468 195.152C175.665 191.45 173.767 186.861 173.767 181.385C173.767 175.992 175.689 171.462 179.539 167.784C183.4 164.111 188.137 162.272 193.755 162.272Z" fill="#03989E"/>
<path d="M247.46 191.865H228.299L224.656 200.451H217.962L234.757 162.438H241.333L257.939 200.451H251.103L247.46 191.865ZM245.023 186.164L237.856 169.274L230.688 186.164H245.023Z" fill="#03989E"/>
<path d="M277.535 194.632H293.999V200.451H271.125V162.438H277.535V194.632Z" fill="#03989E"/>
<path d="M314.678 200.451H308.268V162.438H314.678V200.451Z" fill="#03989E"/>
<path d="M358.289 168.186H339.224V179.162H356.492V184.863H339.224V200.451H332.813V162.438H358.337L358.289 168.186Z" fill="#03989E"/>
<path d="M399.338 168.186H378.592V178.452H397.161V184.2H378.592V194.703H400V200.451H372.182V162.438H399.338V168.186Z" fill="#03989E"/>
<path d="M102.404 238.919H100.133V233.36H93.0128V238.919H90.7419V225.483H93.0128V231.302H100.133V225.483H102.404V238.919Z" fill="#A6A6A6"/>
<path d="M120.337 227.517H113.004V231.136H119.556V233.171H113.004V236.884H120.55V238.919H110.733V225.483H120.337V227.517Z" fill="#A6A6A6"/>
<path d="M136.813 235.891H130.024L128.747 238.919H126.382L132.319 225.483H134.637L140.504 238.919H138.091L136.813 235.891ZM135.938 233.857L133.407 227.896L130.876 233.857H135.938Z" fill="#A6A6A6"/>
<path d="M149.376 236.861H155.195V238.919H147.105V225.483H149.376V236.861Z" fill="#A6A6A6"/>
<path d="M171.34 227.517H167.082V238.919H164.811V227.517H160.553V225.483H171.34V227.517Z" fill="#A6A6A6"/>
<path d="M189.744 238.919H187.473V233.36H180.353V238.919H178.082V225.483H180.353V231.302H187.473V225.483H189.744V238.919Z" fill="#A6A6A6"/>
<path d="M213.767 225.412C214.725 225.412 215.659 225.595 216.558 225.956C217.457 226.322 218.226 226.831 218.876 227.493L217.552 229.149C217.079 228.617 216.499 228.197 215.825 227.896C215.163 227.582 214.488 227.422 213.814 227.422C212.472 227.422 211.336 227.89 210.408 228.818C209.474 229.735 209.012 230.846 209.012 232.153C209.012 233.496 209.474 234.625 210.408 235.536C211.336 236.453 212.472 236.908 213.814 236.908C215.216 236.908 216.464 236.376 217.552 235.3L218.9 236.813C218.202 237.494 217.392 238.032 216.464 238.422C215.547 238.818 214.624 239.013 213.696 239.013C211.721 239.013 210.065 238.363 208.729 237.05C207.386 235.743 206.718 234.117 206.718 232.177C206.718 230.273 207.392 228.67 208.752 227.375C210.124 226.068 211.792 225.412 213.767 225.412Z" fill="#A6A6A6"/>
<path d="M235.62 227.517H228.287V231.136H234.839V233.171H228.287V236.884H235.833V238.919H226.016V225.483H235.62V227.517Z" fill="#A6A6A6"/>
<path d="M255.076 238.919H252.829L245.685 229.268V238.919H243.415V225.483H245.638L252.829 235.134V225.483H255.076V238.919Z" fill="#A6A6A6"/>
<path d="M272.603 227.517H268.345V238.919H266.074V227.517H261.817V225.483H272.603V227.517Z" fill="#A6A6A6"/>
<path d="M288.949 227.517H281.616V231.136H288.169V233.171H281.616V236.884H289.162V238.919H279.345V225.483H288.949V227.517Z" fill="#A6A6A6"/>
<path d="M305.26 238.919L302.8 234.85C302.67 234.868 302.469 234.874 302.185 234.874H299.015V238.919H296.744V225.483H302.185C303.9 225.483 305.236 225.885 306.183 226.689C307.129 227.482 307.602 228.605 307.602 230.072C307.602 231.148 307.354 232.053 306.869 232.792C306.395 233.537 305.715 234.081 304.834 234.424L307.838 238.919H305.26ZM299.015 232.839H302.185C304.361 232.839 305.449 231.935 305.449 230.119C305.449 228.386 304.361 227.517 302.185 227.517H299.015V232.839Z" fill="#A6A6A6"/>
</svg>
