<svg width="150" height="92" viewBox="0 0 150 92" fill="none" xmlns="http://www.w3.org/2000/svg">
<mask id="mask0_33_3" style="mask-type:luminance" maskUnits="userSpaceOnUse" x="64" y="27" width="21" height="28">
<path d="M64.6584 27.0833H84.5285V54.0637H64.6584V27.0833Z" fill="white"/>
</mask>
<g mask="url(#mask0_33_3)">
<path d="M80.3926 54.0366H68.9606C66.7563 54.0366 64.9511 52.1969 64.9511 49.9481V44.2958H67.6256V49.9481C67.6256 50.6985 68.2266 51.3109 68.9606 51.3109H80.3926C81.1266 51.3109 81.7298 50.6985 81.7298 49.9481V27.359H84.4021V49.9481C84.4021 52.1969 82.6102 54.0366 80.3926 54.0366Z" fill="#A6A6A6"/>
</g>
<mask id="mask1_33_3" style="mask-type:luminance" maskUnits="userSpaceOnUse" x="64" y="0" width="21" height="28">
<path d="M64.6584 0.656525H84.5285V27.6618H64.6584V0.656525Z" fill="white"/>
</mask>
<g mask="url(#mask1_33_3)">
<path d="M67.6256 27.3592H64.9511V4.77003C64.9511 2.52355 66.7563 0.683868 68.9606 0.683868H80.3926C82.5969 0.683868 84.4021 2.52355 84.4021 4.77003V10.4247H81.7298V4.77003C81.7298 4.02196 81.1266 3.40722 80.3926 3.40722H68.9606C68.2266 3.40722 67.6256 4.02196 67.6256 4.77003V27.3592Z" fill="#3B82F6"/>
</g>
<mask id="mask2_33_3" style="mask-type:luminance" maskUnits="userSpaceOnUse" x="48" y="17" width="27" height="21">
<path d="M48.4806 17.2475H74.8773V37.4975H48.4806V17.2475Z" fill="white"/>
</mask>
<g mask="url(#mask2_33_3)">
<path d="M74.6844 37.2783H52.5189C50.3124 37.2783 48.5072 35.4386 48.5072 33.1921V21.5416C48.5072 19.2951 50.3124 17.4554 52.5189 17.4554H58.0653V20.1788H52.5189C51.7827 20.1788 51.1817 20.7935 51.1817 21.5416V33.1921C51.1817 33.9402 51.7827 34.5527 52.5189 34.5527H74.6844V37.2783Z" fill="#3B82F6"/>
</g>
<mask id="mask3_33_3" style="mask-type:luminance" maskUnits="userSpaceOnUse" x="74" y="17" width="27" height="21">
<path d="M74.3096 17.2475H100.886V37.4975H74.3096V17.2475Z" fill="white"/>
</mask>
<g mask="url(#mask3_33_3)">
<path d="M96.8498 37.2783H91.3012V34.5527H96.8498C97.5838 34.5527 98.187 33.9402 98.187 33.1921V21.5416C98.187 20.7935 97.5838 20.1788 96.8498 20.1788H74.6844V17.4554H96.8498C99.0541 17.4554 100.859 19.2951 100.859 21.5416V33.1921C100.859 35.4386 99.0541 37.2783 96.8498 37.2783Z" fill="#A6A6A6"/>
</g>
<mask id="mask4_33_3" style="mask-type:luminance" maskUnits="userSpaceOnUse" x="64" y="27" width="21" height="28">
<path d="M64.6584 27.0833H84.5285V54.0637H64.6584V27.0833Z" fill="white"/>
</mask>
<g mask="url(#mask4_33_3)">
<path d="M80.3926 54.0366H68.9606C66.7563 54.0366 64.9511 52.1969 64.9511 49.9481V44.2958H67.6256V49.9481C67.6256 50.6985 68.2266 51.3109 68.9606 51.3109H80.3926C81.1266 51.3109 81.7298 50.6985 81.7298 49.9481V27.359H84.4021V49.9481C84.4021 52.1969 82.6102 54.0366 80.3926 54.0366Z" fill="#A6A6A6"/>
</g>
<mask id="mask5_33_3" style="mask-type:luminance" maskUnits="userSpaceOnUse" x="64" y="0" width="21" height="28">
<path d="M64.6584 0.656525H84.5285V27.6618H64.6584V0.656525Z" fill="white"/>
</mask>
<g mask="url(#mask5_33_3)">
<path d="M67.6256 27.3592H64.9511V4.77003C64.9511 2.52355 66.7563 0.683868 68.9606 0.683868H80.3926C82.5969 0.683868 84.4021 2.52355 84.4021 4.77003V10.4247H81.7298V4.77003C81.7298 4.02196 81.1266 3.40722 80.3926 3.40722H68.9606C68.2266 3.40722 67.6256 4.02196 67.6256 4.77003V27.3592Z" fill="#3B82F6"/>
</g>
<mask id="mask6_33_3" style="mask-type:luminance" maskUnits="userSpaceOnUse" x="48" y="17" width="27" height="21">
<path d="M48.4806 17.2475H74.8773V37.4975H48.4806V17.2475Z" fill="white"/>
</mask>
<g mask="url(#mask6_33_3)">
<path d="M74.6844 37.2783H52.5189C50.3124 37.2783 48.5072 35.4386 48.5072 33.1921V21.5416C48.5072 19.2951 50.3124 17.4554 52.5189 17.4554H58.0653V20.1788H52.5189C51.7827 20.1788 51.1817 20.7935 51.1817 21.5416V33.1921C51.1817 33.9402 51.7827 34.5527 52.5189 34.5527H74.6844V37.2783Z" fill="#3B82F6"/>
</g>
<mask id="mask7_33_3" style="mask-type:luminance" maskUnits="userSpaceOnUse" x="74" y="17" width="27" height="21">
<path d="M74.3096 17.2475H100.886V37.4975H74.3096V17.2475Z" fill="white"/>
</mask>
<g mask="url(#mask7_33_3)">
<path d="M96.8498 37.2783H91.3012V34.5527H96.8498C97.5838 34.5527 98.187 33.9402 98.187 33.1921V21.5416C98.187 20.7935 97.5838 20.1788 96.8498 20.1788H74.6844V17.4554H96.8498C99.0541 17.4554 100.859 19.2951 100.859 21.5416V33.1921C100.859 35.4386 99.0541 37.2783 96.8498 37.2783Z" fill="#A6A6A6"/>
</g>
<path d="M15.0712 77.2627H12.8535L12.8358 66.4055L8.3295 75.744H6.76827L2.262 66.4055V77.2627H0V62.7352H2.85633L7.55775 72.381L12.2414 62.7352H15.0712V77.2627Z" fill="#3B82F6"/>
<path d="M32.0732 64.9319H24.2937V68.8554H31.2571V71.0521H24.2937V75.066H32.3216V77.2627H21.8897V62.7352H32.0732V64.9319Z" fill="#3B82F6"/>
<path d="M38.3023 62.7352H44.148C46.2814 62.7352 48.0444 63.42 49.4349 64.7873C50.8231 66.1569 51.5195 67.8926 51.5195 69.9944C51.5195 72.0985 50.8187 73.8365 49.4171 75.2106C48.02 76.5802 46.2437 77.2627 44.0859 77.2627H38.3023V62.7352ZM40.7062 64.9319V75.066H44.2101C45.6116 75.066 46.7759 74.5936 47.7051 73.6467C48.6321 72.6952 49.0978 71.4861 49.0978 70.0216C49.0978 68.5525 48.6188 67.3366 47.6608 66.3784C46.7027 65.4156 45.5185 64.9319 44.1125 64.9319H40.7062Z" fill="#3B82F6"/>
<path d="M59.5417 77.2627H57.1378V62.7352H59.5417V77.2627Z" fill="#3B82F6"/>
<path d="M72.6582 62.6719C73.6628 62.6719 74.6453 62.8708 75.6033 63.2685C76.5613 63.6618 77.3863 64.2087 78.0782 64.9138L76.6678 66.6948C76.1533 66.1297 75.5412 65.68 74.8315 65.3478C74.1263 65.0178 73.4167 64.8506 72.7026 64.8506C71.2767 64.8506 70.0703 65.3455 69.0834 66.3331C68.101 67.323 67.6109 68.5299 67.6109 69.9583C67.6109 71.4002 68.101 72.6138 69.0834 73.6015C70.0703 74.5914 71.2767 75.084 72.7026 75.084C74.1796 75.084 75.5013 74.51 76.6678 73.3574L78.0959 74.9756C77.3619 75.7123 76.5037 76.2932 75.5235 76.7203C74.5477 77.1497 73.5653 77.3622 72.5784 77.3622C70.485 77.3622 68.7241 76.6548 67.3004 75.2377C65.8745 73.8229 65.1626 72.0691 65.1626 69.9763C65.1626 67.9152 65.8833 66.184 67.327 64.7782C68.7751 63.3747 70.5515 62.6719 72.6582 62.6719Z" fill="#3B82F6"/>
<path d="M92.7974 73.9812H85.6122L84.2462 77.2627H81.7358L88.0339 62.7352H90.4999L96.7271 77.2627H94.1635L92.7974 73.9812ZM91.8837 71.8025L89.1959 65.3478L86.5082 71.8025H91.8837Z" fill="#3B82F6"/>
<path d="M104.076 75.0389H110.25V77.2627H101.672V62.7352H104.076V75.0389Z" fill="#3B82F6"/>
<path d="M118.004 77.2627H115.6V62.7352H118.004V77.2627Z" fill="#3B82F6"/>
<path d="M134.359 64.9319H127.209V69.1266H133.684V71.3053H127.209V77.2627H124.805V62.7352H134.376L134.359 64.9319Z" fill="#3B82F6"/>
<path d="M149.752 64.9319H141.972V68.8554H148.936V71.0521H141.972V75.066H150V77.2627H139.568V62.7352H149.752V64.9319Z" fill="#3B82F6"/>
<path d="M38.4014 91.9639H37.5499V89.8394H34.8798V91.9639H34.0282V86.829H34.8798V89.0529H37.5499V86.829H38.4014V91.9639Z" fill="#A6A6A6"/>
<path d="M45.1264 87.6065H42.3765V88.9896H44.8337V89.7671H42.3765V91.1864H45.2062V91.9639H41.5249V86.829H45.1264V87.6065Z" fill="#A6A6A6"/>
<path d="M51.305 90.8067H48.7592L48.2801 91.9639H47.3931L49.6196 86.829H50.4889L52.6888 91.9639H51.784L51.305 90.8067ZM50.9768 90.0293L50.0277 87.7511L49.0785 90.0293H50.9768Z" fill="#A6A6A6"/>
<path d="M56.0161 91.1774H58.1983V91.9639H55.1645V86.829H56.0161V91.1774Z" fill="#A6A6A6"/>
<path d="M64.2524 87.6065H62.6557V91.9639H61.8041V87.6065H60.2074V86.829H64.2524V87.6065Z" fill="#A6A6A6"/>
<path d="M71.1539 91.9639H70.3024V89.8394H67.6323V91.9639H66.7807V86.829H67.6323V89.0529H70.3024V86.829H71.1539V91.9639Z" fill="#A6A6A6"/>
<path d="M80.1626 86.8019C80.5219 86.8019 80.8723 86.8719 81.2094 87.0098C81.5464 87.1499 81.8347 87.3443 82.0787 87.5974L81.5819 88.2302C81.4045 88.0268 81.1872 87.8664 80.9344 87.7511C80.686 87.6313 80.4332 87.5703 80.1804 87.5703C79.677 87.5703 79.2512 87.7488 78.903 88.1037C78.5526 88.454 78.3796 88.8789 78.3796 89.3783C78.3796 89.8914 78.5526 90.323 78.903 90.6711C79.2512 91.0214 79.677 91.1954 80.1804 91.1954C80.706 91.1954 81.1739 90.992 81.5819 90.5807L82.0875 91.1592C81.8259 91.4192 81.522 91.6248 81.1739 91.774C80.8301 91.9254 80.4842 92 80.136 92C79.3953 92 78.7744 91.7514 78.2732 91.2496C77.7698 90.7502 77.5192 90.1287 77.5192 89.3874C77.5192 88.6596 77.772 88.0472 78.2821 87.5522C78.7966 87.0527 79.4219 86.8019 80.1626 86.8019Z" fill="#A6A6A6"/>
<path d="M88.3574 87.6065H85.6075V88.9896H88.0646V89.7671H85.6075V91.1864H88.4372V91.9639H84.7559V86.829H88.3574V87.6065Z" fill="#A6A6A6"/>
<path d="M95.6537 91.9639H94.811L92.1321 88.2755V91.9639H91.2805V86.829H92.1143L94.811 90.5174V86.829H95.6537V91.9639Z" fill="#A6A6A6"/>
<path d="M102.226 87.6065H100.629V91.9639H99.7779V87.6065H98.1812V86.829H102.226V87.6065Z" fill="#A6A6A6"/>
<path d="M108.356 87.6065H105.606V88.9896H108.063V89.7671H105.606V91.1864H108.436V91.9639H104.755V86.829H108.356V87.6065Z" fill="#A6A6A6"/>
<path d="M114.473 91.9639L113.55 90.409C113.501 90.4157 113.426 90.418 113.319 90.418H112.131V91.9639H111.279V86.829H113.319C113.962 86.829 114.464 86.9827 114.818 87.2901C115.173 87.5929 115.351 88.0223 115.351 88.5828C115.351 88.9942 115.258 89.34 115.076 89.6225C114.898 89.9072 114.643 90.1151 114.313 90.2462L115.439 91.9639H114.473ZM112.131 89.6405H113.319C114.135 89.6405 114.543 89.2948 114.543 88.6009C114.543 87.9387 114.135 87.6065 113.319 87.6065H112.131V89.6405Z" fill="#A6A6A6"/>
</svg>
