<svg width="579" height="140" viewBox="0 0 579 140" fill="none" xmlns="http://www.w3.org/2000/svg">
<mask id="mask0_21_133" style="mask-type:luminance" maskUnits="userSpaceOnUse" x="43" y="69" width="54" height="71">
<path d="M43.4224 69.1492H96.4094V139.747H43.4224V69.1492Z" fill="white"/>
</mask>
<g mask="url(#mask0_21_133)">
<path d="M85.3803 139.677H54.895C49.0168 139.677 44.203 134.863 44.203 128.979V114.188H51.335V128.979C51.335 130.942 52.9376 132.545 54.895 132.545H85.3803C87.3378 132.545 88.9463 130.942 88.9463 128.979V69.8708H96.0724V128.979C96.0724 134.863 91.2941 139.677 85.3803 139.677Z" fill="#A6A6A6"/>
</g>
<mask id="mask1_21_133" style="mask-type:luminance" maskUnits="userSpaceOnUse" x="43" y="0" width="54" height="71">
<path d="M43.4224 0H96.4094V70.6632H43.4224V0Z" fill="white"/>
</mask>
<g mask="url(#mask1_21_133)">
<path d="M51.335 69.8708H44.203V10.763C44.203 4.88476 49.0168 0.0709839 54.895 0.0709839H85.3803C91.2586 0.0709839 96.0724 4.88476 96.0724 10.763V25.5592H88.9463V10.763C88.9463 8.80557 87.3378 7.19703 85.3803 7.19703H54.895C52.9376 7.19703 51.335 8.80557 51.335 10.763V69.8708Z" fill="#3B82F6"/>
</g>
<mask id="mask2_21_133" style="mask-type:luminance" maskUnits="userSpaceOnUse" x="0" y="43" width="71" height="54">
<path d="M0.281555 43.4128H70.6727V96.3998H0.281555V43.4128Z" fill="white"/>
</mask>
<g mask="url(#mask2_21_133)">
<path d="M70.1583 95.8262H11.0505C5.16632 95.8262 0.352539 91.0124 0.352539 85.1342V54.6489C0.352539 48.7706 5.16632 43.9568 11.0505 43.9568H25.8407V51.0829H11.0505C9.08712 51.0829 7.4845 52.6914 7.4845 54.6489V85.1342C7.4845 87.0916 9.08712 88.6943 11.0505 88.6943H70.1583V95.8262Z" fill="#3B82F6"/>
</g>
<mask id="mask3_21_133" style="mask-type:luminance" maskUnits="userSpaceOnUse" x="69" y="43" width="72" height="54">
<path d="M69.1588 43.4128H140.029V96.3998H69.1588V43.4128Z" fill="white"/>
</mask>
<g mask="url(#mask3_21_133)">
<path d="M129.266 95.8262H114.47V88.6943H129.266C131.223 88.6943 132.832 87.0916 132.832 85.1342V54.6489C132.832 52.6914 131.223 51.0829 129.266 51.0829H70.1582V43.9568H129.266C135.144 43.9568 139.958 48.7706 139.958 54.6489V85.1342C139.958 91.0124 135.144 95.8262 129.266 95.8262Z" fill="#A6A6A6"/>
</g>
<mask id="mask4_21_133" style="mask-type:luminance" maskUnits="userSpaceOnUse" x="43" y="69" width="54" height="71">
<path d="M43.4224 69.1492H96.4094V139.747H43.4224V69.1492Z" fill="white"/>
</mask>
<g mask="url(#mask4_21_133)">
<path d="M85.3803 139.677H54.895C49.0168 139.677 44.203 134.863 44.203 128.979V114.188H51.335V128.979C51.335 130.942 52.9376 132.545 54.895 132.545H85.3803C87.3378 132.545 88.9463 130.942 88.9463 128.979V69.8708H96.0724V128.979C96.0724 134.863 91.2941 139.677 85.3803 139.677Z" fill="#A6A6A6"/>
</g>
<mask id="mask5_21_133" style="mask-type:luminance" maskUnits="userSpaceOnUse" x="43" y="0" width="54" height="71">
<path d="M43.4224 0H96.4094V70.6632H43.4224V0Z" fill="white"/>
</mask>
<g mask="url(#mask5_21_133)">
<path d="M51.335 69.8708H44.203V10.763C44.203 4.88476 49.0168 0.0709839 54.895 0.0709839H85.3803C91.2586 0.0709839 96.0724 4.88476 96.0724 10.763V25.5592H88.9463V10.763C88.9463 8.80557 87.3378 7.19703 85.3803 7.19703H54.895C52.9376 7.19703 51.335 8.80557 51.335 10.763V69.8708Z" fill="#3B82F6"/>
</g>
<mask id="mask6_21_133" style="mask-type:luminance" maskUnits="userSpaceOnUse" x="0" y="43" width="71" height="54">
<path d="M0.281555 43.4128H70.6727V96.3998H0.281555V43.4128Z" fill="white"/>
</mask>
<g mask="url(#mask6_21_133)">
<path d="M70.1583 95.8262H11.0505C5.16632 95.8262 0.352539 91.0124 0.352539 85.1342V54.6489C0.352539 48.7706 5.16632 43.9568 11.0505 43.9568H25.8407V51.0829H11.0505C9.08712 51.0829 7.4845 52.6914 7.4845 54.6489V85.1342C7.4845 87.0916 9.08712 88.6943 11.0505 88.6943H70.1583V95.8262Z" fill="#3B82F6"/>
</g>
<mask id="mask7_21_133" style="mask-type:luminance" maskUnits="userSpaceOnUse" x="69" y="43" width="72" height="54">
<path d="M69.1588 43.4128H140.029V96.3998H69.1588V43.4128Z" fill="white"/>
</mask>
<g mask="url(#mask7_21_133)">
<path d="M129.266 95.8262H114.47V88.6943H129.266C131.223 88.6943 132.832 87.0916 132.832 85.1342V54.6489C132.832 52.6914 131.223 51.0829 129.266 51.0829H70.1582V43.9568H129.266C135.144 43.9568 139.958 48.7706 139.958 54.6489V85.1342C139.958 91.0124 135.144 95.8262 129.266 95.8262Z" fill="#A6A6A6"/>
</g>
<path d="M219.19 66.1792H213.276L213.229 37.7696L201.212 62.2052H197.049L185.032 37.7696V66.1792H179V28.1657H186.617L199.154 53.4055L211.644 28.1657H219.19V66.1792Z" fill="#3B82F6"/>
<path d="M264.528 33.9139H243.783V44.1801H262.352V49.9283H243.783V60.4311H265.191V66.1792H237.373V28.1657H264.528V33.9139Z" fill="#3B82F6"/>
<path d="M281.139 28.1657H296.728C302.417 28.1657 307.118 29.9576 310.826 33.5354C314.528 37.1191 316.385 41.6609 316.385 47.1606C316.385 52.6663 314.517 57.214 310.779 60.8095C307.053 64.3933 302.316 66.1792 296.562 66.1792H281.139V28.1657ZM287.55 33.9139V60.4311H296.894C300.631 60.4311 303.736 59.1951 306.214 56.7172C308.686 54.2275 309.927 51.0637 309.927 47.2316C309.927 43.3877 308.65 40.2061 306.095 37.6987C303.541 35.1794 300.383 33.9139 296.633 33.9139H287.55Z" fill="#3B82F6"/>
<path d="M337.778 66.1792H331.367V28.1657H337.778V66.1792Z" fill="#3B82F6"/>
<path d="M372.755 28C375.434 28 378.054 28.5204 380.609 29.5612C383.164 30.5902 385.363 32.0213 387.209 33.8664L383.447 38.5265C382.075 37.048 380.443 35.8712 378.551 35.0019C376.67 34.1385 374.778 33.7008 372.874 33.7008C369.071 33.7008 365.854 34.9959 363.222 37.5803C360.603 40.1705 359.296 43.3284 359.296 47.0659C359.296 50.8388 360.603 54.0145 363.222 56.5988C365.854 59.189 369.071 60.4782 372.874 60.4782C376.812 60.4782 380.337 58.9761 383.447 55.9601L387.256 60.1944C385.298 62.1223 383.01 63.6421 380.396 64.7598C377.794 65.8834 375.174 66.4393 372.542 66.4393C366.96 66.4393 362.264 64.5883 358.468 60.8804C354.665 57.1784 352.767 52.5893 352.767 47.1132C352.767 41.7199 354.689 37.1899 358.539 33.5116C362.4 29.8392 367.137 28 372.755 28Z" fill="#3B82F6"/>
<path d="M426.46 57.5925H407.299L403.656 66.1792H396.962L413.757 28.1657H420.333L436.939 66.1792H430.103L426.46 57.5925ZM424.023 51.8916L416.856 35.002L409.688 51.8916H424.023Z" fill="#3B82F6"/>
<path d="M456.535 60.3601H472.999V66.1792H450.125V28.1657H456.535V60.3601Z" fill="#3B82F6"/>
<path d="M493.678 66.1792H487.268V28.1657H493.678V66.1792Z" fill="#3B82F6"/>
<path d="M537.289 33.9139H518.224V44.8898H535.492V50.5906H518.224V66.1792H511.813V28.1657H537.337L537.289 33.9139Z" fill="#3B82F6"/>
<path d="M578.338 33.9139H557.592V44.1801H576.161V49.9283H557.592V60.4311H579V66.1792H551.182V28.1657H578.338V33.9139Z" fill="#3B82F6"/>
<path d="M190.662 109.507H188.391V103.948H181.271V109.507H179V96.071H181.271V101.89H188.391V96.071H190.662V109.507Z" fill="#A6A6A6"/>
<path d="M208.595 98.1053H201.262V101.725H207.815V103.759H201.262V107.473H208.808V109.507H198.991V96.071H208.595V98.1053Z" fill="#A6A6A6"/>
<path d="M225.071 106.479H218.283L217.005 109.507H214.64L220.577 96.071H222.895L228.762 109.507H226.349L225.071 106.479ZM224.196 104.445L221.665 98.4838L219.134 104.445H224.196Z" fill="#A6A6A6"/>
<path d="M237.634 107.449H243.454V109.507H235.364V96.071H237.634V107.449Z" fill="#A6A6A6"/>
<path d="M259.598 98.1053H255.34V109.507H253.069V98.1053H248.811V96.071H259.598V98.1053Z" fill="#A6A6A6"/>
<path d="M278.002 109.507H275.731V103.948H268.611V109.507H266.34V96.071H268.611V101.89H275.731V96.071H278.002V109.507Z" fill="#A6A6A6"/>
<path d="M302.025 96C302.983 96 303.918 96.1833 304.816 96.5441C305.715 96.9107 306.484 97.4193 307.135 98.0816L305.81 99.7375C305.337 99.2052 304.757 98.7854 304.083 98.4838C303.421 98.1703 302.747 98.0107 302.072 98.0107C300.73 98.0107 299.595 98.4779 298.666 99.4063C297.732 100.323 297.27 101.435 297.27 102.742C297.27 104.084 297.732 105.214 298.666 106.124C299.595 107.041 300.73 107.496 302.072 107.496C303.474 107.496 304.722 106.964 305.81 105.888L307.158 107.402C306.46 108.082 305.65 108.62 304.722 109.01C303.805 109.406 302.883 109.602 301.954 109.602C299.979 109.602 298.323 108.951 296.987 107.638C295.644 106.331 294.976 104.705 294.976 102.765C294.976 100.861 295.65 99.2585 297.01 97.9634C298.382 96.6564 300.05 96 302.025 96Z" fill="#A6A6A6"/>
<path d="M323.878 98.1053H316.545V101.725H323.097V103.759H316.545V107.473H324.091V109.507H314.274V96.071H323.878V98.1053Z" fill="#A6A6A6"/>
<path d="M343.335 109.507H341.087L333.944 99.8558V109.507H331.673V96.071H333.896L341.087 105.722V96.071H343.335V109.507Z" fill="#A6A6A6"/>
<path d="M360.861 98.1053H356.603V109.507H354.332V98.1053H350.075V96.071H360.861V98.1053Z" fill="#A6A6A6"/>
<path d="M377.207 98.1053H369.874V101.725H376.427V103.759H369.874V107.473H377.42V109.507H367.603V96.071H377.207V98.1053Z" fill="#A6A6A6"/>
<path d="M393.518 109.507L391.058 105.438C390.928 105.456 390.727 105.462 390.443 105.462H387.273V109.507H385.002V96.071H390.443C392.158 96.071 393.494 96.4731 394.441 97.2774C395.387 98.0698 395.86 99.1934 395.86 100.66C395.86 101.736 395.612 102.641 395.127 103.38C394.654 104.125 393.973 104.67 393.092 105.013L396.096 109.507H393.518ZM387.273 103.428H390.443C392.619 103.428 393.707 102.523 393.707 100.707C393.707 98.9746 392.619 98.1053 390.443 98.1053H387.273V103.428Z" fill="#A6A6A6"/>
</svg>
